<svg width="2179" height="814" viewBox="0 0 2179 814" fill="none" xmlns="http://www.w3.org/2000/svg">
<path d="M2158.77 181.678C2170.32 163.391 2177 141.726 2177 118.5C2177 53.0542 2123.95 0 2058.5 0C1993.05 0 1940 53.0542 1940 118.5C1940 126.552 1940.8 134.417 1942.33 142.018C1909.15 142.752 1881.35 165.334 1872.75 195.951C1860.17 190.825 1846.42 188 1832 188C1772.35 188 1724 236.353 1724 296C1724 304.409 1724.96 312.593 1726.78 320.449C1722.56 320.151 1718.3 320 1714 320C1623.67 320 1548.97 386.909 1536.75 473.87C1530.69 472.644 1524.42 472 1518 472C1479.17 472 1445.83 495.548 1431.5 529.143C1411.53 516.996 1388.08 510 1363 510C1318.25 510 1278.71 532.266 1254.83 566.323C1232.88 542.166 1201.21 527 1166 527C1114.3 527 1070.24 559.689 1053.36 605.524C1037.49 593.282 1017.59 586 996 586C981.969 586 968.656 589.074 956.698 594.585C939.628 541.453 889.805 503 831 503C791.655 503 756.331 520.214 732.147 547.521C718.859 534.809 700.842 527 681 527C672.526 527 664.385 528.424 656.803 531.047C630.101 469.248 568.601 426 497 426C491.262 426 485.589 426.278 479.993 426.821C479.995 426.613 479.997 426.405 479.998 426.197C479.999 425.965 480 425.732 480 425.5C480 360.054 426.946 307 361.5 307C343.83 307 327.063 310.868 312 317.802C306.505 284.671 279 258.975 245.015 256.241C257.065 236.328 264 212.974 264 188C264 115.098 204.902 56 132 56C59.0984 56 0 115.098 0 188C0 222.814 13.4777 254.481 35.5 278.066V813.5H2179L2158.77 181.678Z" fill="url(#paint0_radial_162_4)"/>
<defs>
<radialGradient id="paint0_radial_162_4" cx="0" cy="0" r="1" gradientUnits="userSpaceOnUse" gradientTransform="translate(1090 -263.5) rotate(90) scale(1090.5 1437.07)">
<stop stop-color="#4263A5"/>
<stop offset="0.863048" stop-color="#151921" stop-opacity="1"/>
<stop offset="1" stop-color="#151921" stop-opacity="1"/>
</radialGradient>
</defs>
</svg>
