<svg width="2223" height="868" viewBox="0 0 2223 868" fill="none" xmlns="http://www.w3.org/2000/svg">
<g filter="url(#filter0_d_162_2)">
<path d="M2180.77 235.678C2192.32 217.391 2199 195.726 2199 172.5C2199 107.054 2145.95 54 2080.5 54C2015.05 54 1962 107.054 1962 172.5C1962 180.552 1962.8 188.417 1964.33 196.018C1931.15 196.752 1903.35 219.334 1894.75 249.951C1882.17 244.825 1868.42 242 1854 242C1794.35 242 1746 290.353 1746 350C1746 358.409 1746.96 366.593 1748.78 374.449C1744.56 374.151 1740.3 374 1736 374C1645.67 374 1570.97 440.909 1558.75 527.87C1552.69 526.644 1546.42 526 1540 526C1501.17 526 1467.83 549.548 1453.5 583.143C1433.53 570.996 1410.08 564 1385 564C1340.25 564 1300.71 586.266 1276.83 620.323C1254.88 596.166 1223.21 581 1188 581C1136.3 581 1092.24 613.689 1075.36 659.524C1059.49 647.282 1039.59 640 1018 640C1003.97 640 990.656 643.074 978.698 648.585C961.628 595.453 911.805 557 853 557C813.655 557 778.331 574.214 754.147 601.521C740.859 588.809 722.842 581 703 581C694.526 581 686.385 582.424 678.803 585.047C652.101 523.248 590.601 480 519 480C513.262 480 507.589 480.278 501.993 480.821C501.995 480.613 501.997 480.405 501.998 480.197C501.999 479.965 502 479.732 502 479.5C502 414.054 448.946 361 383.5 361C365.83 361 349.063 364.868 334 371.802C328.505 338.671 301 312.975 267.015 310.241C279.065 290.328 286 266.974 286 242C286 169.098 226.902 110 154 110C81.0984 110 22 169.098 22 242C22 276.814 35.4777 308.481 57.5 332.066V867.5H2201L2180.77 235.678Z" fill="#151921"/>
</g>
<defs>
<filter id="filter0_d_162_2" x="0" y="0" width="2223" height="867.5" filterUnits="userSpaceOnUse" color-interpolation-filters="sRGB">
<feFlood flood-opacity="0" result="BackgroundImageFix"/>
<feColorMatrix in="SourceAlpha" type="matrix" values="0 0 0 0 0 0 0 0 0 0 0 0 0 0 0 0 0 0 127 0" result="hardAlpha"/>
<feOffset dy="-32"/>
<feGaussianBlur stdDeviation="11"/>
<feComposite in2="hardAlpha" operator="out"/>
<feColorMatrix type="matrix" values="0 0 0 0 0.0460141 0 0 0 0 0.0547357 0 0 0 0 0.0721789 0 0 0 0.2 0"/>
<feBlend mode="normal" in2="BackgroundImageFix" result="effect1_dropShadow_162_2"/>
<feBlend mode="normal" in="SourceGraphic" in2="effect1_dropShadow_162_2" result="shape"/>
</filter>
</defs>
</svg>
