<svg width="122" height="29" viewBox="0 0 122 29" fill="none" xmlns="http://www.w3.org/2000/svg">
<path d="M0 23.3838L3.85544 5.14224H10.3186V18.0935H10.4184L16.3825 5.14224H22.9455L19.0401 23.3838H14.6607L16.1205 16.5339C16.395 15.2612 16.6362 14.2173 16.8442 13.4021C17.0521 12.5869 17.2226 11.9381 17.3557 11.4557C17.4971 10.9649 17.5969 10.5781 17.6552 10.2953H17.5554L11.5414 23.3838H6.92482V10.2953H6.825C6.69191 11.1521 6.56298 11.9672 6.43821 12.7408C6.31344 13.5061 6.19283 14.2173 6.07638 14.8744C5.96824 15.5316 5.8601 16.1346 5.75197 16.6836L4.34205 23.3838H0Z" fill="white"/>
<path d="M29.3088 23.6334C28.1526 23.6334 27.1669 23.4213 26.3518 22.9971C25.5449 22.5728 24.9294 21.9573 24.5051 21.1504C24.0809 20.3353 23.8688 19.3496 23.8688 18.1933C23.8688 17.2284 23.9769 16.2968 24.1932 15.3985C24.4095 14.4918 24.7339 13.6517 25.1664 12.8781C25.599 12.1045 26.1355 11.4266 26.776 10.8443C27.4165 10.262 28.1568 9.8087 28.9969 9.48429C29.8454 9.15989 30.7936 8.99768 31.8417 8.99768C32.9979 8.99768 33.9795 9.2098 34.7863 9.63402C35.6015 10.0582 36.2212 10.6779 36.6454 11.4931C37.0696 12.3 37.2817 13.2815 37.2817 14.4377C37.2817 15.4026 37.1736 16.3384 36.9573 17.2451C36.7411 18.1434 36.4167 18.9794 35.9841 19.753C35.5516 20.5266 35.0151 21.2045 34.3746 21.7868C33.7341 22.369 32.9896 22.8224 32.1412 23.1468C31.301 23.4712 30.3569 23.6334 29.3088 23.6334ZM29.8454 20.015C30.1282 20.015 30.3944 19.9069 30.6439 19.6906C30.9018 19.4743 31.1347 19.179 31.3426 18.8047C31.5506 18.4221 31.7294 17.9896 31.8791 17.5071C32.0289 17.0163 32.1453 16.4965 32.2285 15.9475C32.3117 15.3985 32.3533 14.8453 32.3533 14.288C32.3533 13.922 32.3075 13.6184 32.216 13.3772C32.1328 13.1276 32.0122 12.9405 31.8542 12.8157C31.6961 12.6909 31.5048 12.6285 31.2802 12.6285C30.9974 12.6285 30.7271 12.7367 30.4692 12.9529C30.2197 13.1692 29.9909 13.4645 29.783 13.8388C29.5833 14.2131 29.4087 14.6457 29.2589 15.1364C29.1092 15.6189 28.9928 16.1388 28.9096 16.6961C28.8347 17.2451 28.7973 17.7982 28.7973 18.3556C28.7973 18.9045 28.8888 19.3204 29.0718 19.6033C29.2548 19.8778 29.5126 20.015 29.8454 20.015Z" fill="white"/>
<path d="M43.171 23.6334C42.231 23.6334 41.3909 23.5668 40.6506 23.4338C39.9186 23.3007 39.2781 23.1052 38.7291 22.8473V18.9669C39.4944 19.3828 40.2056 19.674 40.8627 19.8403C41.5198 20.0067 42.1853 20.0899 42.859 20.0899C43.0587 20.0899 43.2916 20.0732 43.5577 20.04C43.8239 19.9984 44.0568 19.9152 44.2565 19.7904C44.4561 19.6657 44.5559 19.4743 44.5559 19.2165C44.5559 19.0252 44.5102 18.8546 44.4187 18.7049C44.3355 18.5469 44.1567 18.3722 43.8822 18.1809C43.6077 17.9812 43.1834 17.7234 42.6095 17.4073C42.0272 17.0829 41.5489 16.7294 41.1746 16.3467C40.8003 15.9641 40.5216 15.5399 40.3386 15.0741C40.164 14.5999 40.0766 14.0634 40.0766 13.4645C40.0766 12.5745 40.2846 11.7967 40.7005 11.1313C41.1164 10.4575 41.7527 9.93347 42.6095 9.55916C43.4746 9.18484 44.5642 8.99768 45.8785 8.99768C46.8018 8.99768 47.6503 9.10998 48.4238 9.33457C49.1974 9.55084 49.9419 9.8794 50.6572 10.3203L49.1475 13.4645C48.6817 13.1567 48.1493 12.8864 47.5504 12.6535C46.9599 12.4123 46.4192 12.2917 45.9284 12.2917C45.6373 12.2917 45.4044 12.3624 45.2297 12.5038C45.0633 12.6452 44.9801 12.8573 44.9801 13.1401C44.9801 13.2981 45.0342 13.4437 45.1423 13.5768C45.2588 13.7099 45.4418 13.8471 45.6913 13.9885C45.9409 14.1216 46.2611 14.288 46.6521 14.4876C47.2926 14.8037 47.8166 15.1614 48.2242 15.5607C48.6401 15.9599 48.9479 16.4008 49.1475 16.8832C49.3555 17.3657 49.4594 17.8981 49.4594 18.4803C49.4594 19.6449 49.2016 20.6098 48.6859 21.375C48.1701 22.132 47.4423 22.6976 46.5024 23.0719C45.5624 23.4462 44.4519 23.6334 43.171 23.6334Z" fill="white"/>
<path d="M56.2845 23.6334C55.0534 23.6334 54.1176 23.3714 53.4771 22.8473C52.8449 22.315 52.5288 21.4457 52.5288 20.2396C52.5288 19.8986 52.5579 19.5076 52.6162 19.0667C52.6827 18.6259 52.7534 18.2349 52.8283 17.8939L53.8764 12.8781H51.9549L52.4664 10.5074L55.1865 9.40943L56.8958 6.41491H60.1149L59.5036 9.24723H63.097L62.3109 12.8781H58.705L57.6569 17.6568C57.607 17.8981 57.5613 18.1434 57.5197 18.393C57.4781 18.6342 57.4573 18.8255 57.4573 18.9669C57.4573 19.2497 57.528 19.4535 57.6694 19.5783C57.8191 19.6948 58.0105 19.753 58.2434 19.753C58.5595 19.753 58.9171 19.6989 59.3164 19.5908C59.7157 19.4743 60.1191 19.3329 60.5267 19.1666V22.7974C60.0026 23.0553 59.3913 23.2591 58.6925 23.4088C58.0021 23.5585 57.1994 23.6334 56.2845 23.6334Z" fill="white"/>
<path d="M77.826 19.8106H78.8491C79.3483 19.8106 79.785 19.715 80.1593 19.5237C80.5336 19.3323 80.8247 19.0786 81.0327 18.7625C81.2489 18.4381 81.3571 18.0805 81.3571 17.6895C81.3571 17.1156 81.2198 16.6872 80.9453 16.4044C80.6709 16.1216 80.1884 15.9801 79.498 15.9801H78.6495L77.826 19.8106Z" fill="url(#paint0_linear_183_61)"/>
<path d="M79.3857 12.3742H80.2841C80.858 12.3742 81.303 12.2911 81.6191 12.1247C81.9435 11.95 82.1723 11.713 82.3053 11.4135C82.4384 11.1141 82.505 10.7689 82.505 10.3779C82.505 9.97032 82.3761 9.65838 82.1182 9.44212C81.8603 9.21752 81.4611 9.10523 80.9204 9.10523H80.1343L79.3857 12.3742Z" fill="url(#paint1_linear_183_61)"/>
<path d="M94.3083 15.3313H94.6702C95.3939 15.3313 95.9679 15.2357 96.3921 15.0444C96.8163 14.853 97.1199 14.6118 97.3029 14.3207C97.4858 14.0296 97.5774 13.7384 97.5774 13.4473C97.5774 13.1811 97.4942 12.9565 97.3278 12.7735C97.1615 12.5905 96.8953 12.499 96.5293 12.499C96.155 12.499 95.8098 12.6446 95.4937 12.9357C95.1776 13.2269 94.9156 13.5928 94.7077 14.0337C94.4997 14.4662 94.3666 14.8988 94.3083 15.3313Z" fill="url(#paint2_linear_183_61)"/>
<path fill-rule="evenodd" clip-rule="evenodd" d="M74.1813 0.627594C72.292 0.627594 70.6653 1.96117 70.2948 3.81383L66.3313 23.6316C65.8407 26.0842 67.7167 28.3724 70.2178 28.3724H113.66C115.549 28.3724 117.176 27.0388 117.546 25.1862L121.51 5.36845C122.001 2.91585 120.125 0.627594 117.623 0.627594H74.1813ZM72.1365 23.6162L75.9919 5.37456H82.0683C83.3742 5.37456 84.4306 5.54509 85.2375 5.88613C86.0443 6.22717 86.635 6.69714 87.0092 7.29605C87.3835 7.89495 87.5707 8.58119 87.5707 9.35477C87.5707 10.1783 87.4251 10.9019 87.134 11.5258C86.8512 12.1413 86.4312 12.6571 85.8738 13.073C85.3248 13.4889 84.6552 13.8174 83.865 14.0587V14.1585C84.597 14.3997 85.1793 14.8239 85.6118 15.4312C86.0443 16.0384 86.2606 16.7745 86.2606 17.6396C86.2606 19.062 85.932 20.2141 85.2749 21.0958C84.6261 21.9692 83.7485 22.6097 82.6422 23.0173C81.5443 23.4165 80.3173 23.6162 78.9615 23.6162H72.1365ZM94.5579 23.8657C93.3684 23.8657 92.3578 23.6411 91.526 23.1919C90.6942 22.7428 90.0578 22.1023 89.617 21.2705C89.1845 20.4303 88.9682 19.4322 88.9682 18.2759C88.9682 17.1197 89.1304 16.0009 89.4547 14.9196C89.7875 13.8382 90.2865 12.8692 90.952 12.0124C91.6258 11.1556 92.4701 10.4777 93.4848 9.97863C94.4997 9.47954 95.6933 9.23001 97.0658 9.23001C98.6546 9.23001 99.8981 9.58768 100.797 10.303C101.703 11.0184 102.156 11.9708 102.156 13.1603C102.156 13.9422 102.007 14.6534 101.707 15.2939C101.408 15.9261 100.946 16.4709 100.322 16.9284C99.7068 17.3859 98.9208 17.7394 97.9642 17.989C97.0076 18.2302 95.8722 18.3508 94.5579 18.3508H93.8218V18.5504C93.8218 19.1826 93.9923 19.6484 94.3333 19.9479C94.6744 20.2473 95.1859 20.3971 95.868 20.3971C96.5834 20.3971 97.2613 20.2889 97.9018 20.0727C98.5423 19.8564 99.2285 19.5569 99.9605 19.1743V22.593C99.2035 22.9757 98.4217 23.2834 97.6148 23.5163C96.808 23.7493 95.7889 23.8657 94.5579 23.8657ZM105.026 23.0796C105.667 23.6037 106.602 23.8657 107.834 23.8657C108.749 23.8657 109.551 23.7908 110.242 23.6411C110.94 23.4914 111.552 23.2876 112.076 23.0297V19.3989C111.668 19.5652 111.265 19.7066 110.866 19.8231C110.466 19.9312 110.109 19.9853 109.792 19.9853C109.56 19.9853 109.368 19.9271 109.219 19.8106C109.077 19.6859 109.006 19.4821 109.006 19.1993C109.006 19.1182 109.013 19.0209 109.027 18.9071C109.037 18.8223 109.051 18.7283 109.069 18.6253C109.11 18.3758 109.156 18.1304 109.206 17.8891L110.254 13.1104H113.86L114.646 9.47954H111.053L111.664 6.64723H108.445L106.736 9.64175L104.016 10.7397L103.504 13.1104H105.426L104.377 18.1262C104.303 18.4673 104.232 18.8582 104.165 19.2991C104.107 19.7399 104.078 20.1309 104.078 20.4719C104.078 21.678 104.394 22.5473 105.026 23.0796Z" fill="url(#paint3_linear_183_61)"/>
<defs>
<linearGradient id="paint0_linear_183_61" x1="93.9206" y1="0.627594" x2="93.9206" y2="28.3724" gradientUnits="userSpaceOnUse">
<stop stop-color="#12B1EB"/>
<stop offset="1" stop-color="#0A96F3"/>
</linearGradient>
<linearGradient id="paint1_linear_183_61" x1="93.9206" y1="0.627594" x2="93.9206" y2="28.3724" gradientUnits="userSpaceOnUse">
<stop stop-color="#12B1EB"/>
<stop offset="1" stop-color="#0A96F3"/>
</linearGradient>
<linearGradient id="paint2_linear_183_61" x1="93.9206" y1="0.627594" x2="93.9206" y2="28.3724" gradientUnits="userSpaceOnUse">
<stop stop-color="#12B1EB"/>
<stop offset="1" stop-color="#0A96F3"/>
</linearGradient>
<linearGradient id="paint3_linear_183_61" x1="93.9206" y1="0.627594" x2="93.9206" y2="28.3724" gradientUnits="userSpaceOnUse">
<stop stop-color="#12B1EB"/>
<stop offset="1" stop-color="#0A96F3"/>
</linearGradient>
</defs>
</svg>
